<?xml version="1.0" encoding="utf-8"?>
<!-- Generator: Adobe Illustrator 18.1.1, SVG Export Plug-In . SVG Version: 6.00 Build 0)  -->
<svg version="1.1" id="Layer_1" xmlns="http://www.w3.org/2000/svg" xmlns:xlink="http://www.w3.org/1999/xlink" x="0px" y="0px"
	 viewBox="0 0 64.6 69.8" enable-background="new 0 0 64.6 69.8" xml:space="preserve">
<g>
	<path fill="#DA3A00" d="M63.7,16.3c0,0.8-0.6,1.4-1.4,1.4H58v42.3c0,4.9-3.2,9.1-7.1,9.1H13.7c-3.9,0-7.1-4-7.1-8.9V17.7H2.3
		c-0.8,0-1.4-0.6-1.4-1.4v-2.9c0-0.8,0.6-1.4,1.4-1.4h13.8l3.1-7.5c0.9-2.2,3.6-4,5.9-4h14.3c2.4,0,5,1.8,5.9,4l3.1,7.5h13.8
		c0.8,0,1.4,0.6,1.4,1.4V16.3z M52.3,17.7h-40v42.3c0,2.1,1.2,3.4,1.4,3.4h37.1c0.2,0,1.4-1.2,1.4-3.4V17.7z M23.7,53.4
		c0,0.8-0.6,1.4-1.4,1.4h-2.9c-0.8,0-1.4-0.6-1.4-1.4V27.7c0-0.8,0.6-1.4,1.4-1.4h2.9c0.8,0,1.4,0.6,1.4,1.4V53.4z M42.3,12
		l-2.1-5.2c-0.1-0.2-0.5-0.4-0.8-0.5H25.2c-0.3,0-0.6,0.3-0.8,0.5L22.3,12H42.3z M35.2,53.4c0,0.8-0.6,1.4-1.4,1.4h-2.9
		c-0.8,0-1.4-0.6-1.4-1.4V27.7c0-0.8,0.6-1.4,1.4-1.4h2.9c0.8,0,1.4,0.6,1.4,1.4V53.4z M46.6,53.4c0,0.8-0.6,1.4-1.4,1.4h-2.9
		c-0.8,0-1.4-0.6-1.4-1.4V27.7c0-0.8,0.6-1.4,1.4-1.4h2.9c0.8,0,1.4,0.6,1.4,1.4V53.4z"/>
</g>
</svg>
